<?xml version="1.0" encoding="utf-8"?>
<!-- Generator: Adobe Illustrator 24.0.1, SVG Export Plug-In . SVG Version: 6.00 Build 0)  -->
<svg version="1.1" xmlns="http://www.w3.org/2000/svg" xmlns:xlink="http://www.w3.org/1999/xlink" x="0px" y="0px"
	 viewBox="0 0 42.7 29.91" style="enable-background:new 0 0 42.7 29.91;" xml:space="preserve">
<style type="text/css">
	.st0{display:none;}
	.st1{display:inline;}
	.st2{fill:#FEFEFE;}
	.st3{fill:#BEBEBE;}
	.st4{fill:#050505;}
</style>
<g id="Layer_1" class="st0">
	<g class="st1">
		<g>
			<path class="st2" d="M2.48,13.92c0-2.66,0-5.31,0-7.97c12.63,0,25.26,0,37.89,0c0,2.66,0,5.31,0,7.97
				C27.74,14.42,15.11,14.42,2.48,13.92z"/>
			<path class="st2" d="M2.48,23.88c0-2.32,0-4.65,0-6.97c12.63-0.5,25.26-0.5,37.89,0c0,2.32,0,4.65,0,6.97
				C27.74,23.88,15.11,23.88,2.48,23.88z"/>
			<path d="M40.37,16.9c-12.63-0.5-25.26-0.5-37.89,0c0-1,0-1.99,0-2.99c12.63,0.5,25.26,0.5,37.89,0
				C40.37,14.91,40.37,15.91,40.37,16.9z"/>
			<ellipse cx="21.43" cy="4.95" rx="26.79" ry="1.41"/>
			<path d="M2.48,23.88c12.63,0,25.26,0,37.89,0c-0.08,0.98,0.54,2.08-1.5,2.06c-11.63-0.13-23.27-0.13-34.9,0
				C1.94,25.96,2.56,24.86,2.48,23.88z"/>
			<path class="st3" d="M40.37,3.96c-12.63,0-25.26,0-37.89,0c-0.19-0.86,0.14-1.02,1-1.02c11.97,0.04,23.93,0.04,35.9,0
				C40.23,2.93,40.57,3.1,40.37,3.96z"/>
		</g>
	</g>
</g>
<g id="Layer_2">
	<path class="st4" d="M39,5.91H3.68C3,5.91,2.45,5.36,2.45,4.68V4.17c0-0.68,0.56-1.23,1.23-1.23H39c0.68,0,1.23,0.56,1.23,1.23
		v0.51C40.23,5.36,39.68,5.91,39,5.91z"/>
	<path class="st4" d="M38.91,16.89H3.6c-0.68,0-1.23-0.56-1.23-1.23v-0.51c0-0.68,0.56-1.23,1.23-1.23h35.32
		c0.68,0,1.23,0.56,1.23,1.23v0.51C40.15,16.34,39.59,16.89,38.91,16.89z"/>
	<path class="st4" d="M39.17,26.17H3.85c-0.68,0-1.23-0.56-1.23-1.23v-0.51c0-0.68,0.56-1.23,1.23-1.23h35.32
		c0.68,0,1.23,0.56,1.23,1.23v0.51C40.4,25.61,39.85,26.17,39.17,26.17z"/>
</g>
</svg>
