<?xml version="1.0" encoding="utf-8"?>
<!-- Generator: Adobe Illustrator 24.0.1, SVG Export Plug-In . SVG Version: 6.00 Build 0)  -->
<svg version="1.1" id="Layer_1" xmlns="http://www.w3.org/2000/svg" xmlns:xlink="http://www.w3.org/1999/xlink" x="0px" y="0px"
	 viewBox="0 0 703.9 647.3" style="enable-background:new 0 0 703.9 647.3;" xml:space="preserve">
<style type="text/css">
	.st0{fill:#353535;}
</style>
<path class="st0" d="M207.91,29.91c58.24,1.5,106.57,24.61,143.7,70.52c2.84,3.51,3.72,3.67,6.74,0.06
	c49.29-58.81,112.19-82.56,186.78-64.9c75.45,17.85,121.4,67.91,138.37,143.54c8.33,37.11,1.81,73.14-12.03,108.07
	c-17.53,44.23-44.32,82.52-75.68,117.87c-67.83,76.45-142.86,145.28-221.92,209.85c-5.02,4.1-10.46,7.7-15.47,11.82
	c-2.5,2.06-4.16,1.98-6.78,0.04c-27.47-20.34-53.41-42.52-78.86-65.28c-47.94-42.86-95.01-86.68-138.67-133.95
	c-27.01-29.25-52.85-59.53-72.95-94.2c-16.29-28.1-29.62-57.42-35.13-89.66c-9.22-54,3.79-102.7,38-145.05
	C100.63,53.32,149.08,31.21,207.91,29.91z M355.01,133.66c-2.51-3.87-4.65-7.18-6.8-10.48c-56.01-86.2-174.21-103.46-251.3-35.47
	c-46.67,41.16-65.42,93.7-54.63,155.51c5.33,30.52,18.68,58.12,34.33,84.65c18.66,31.61,42.61,59.11,66.95,86.28
	c19.91,22.22,41.24,43.07,62.74,63.73c45.77,43.97,92.3,87.11,142.26,126.38c5.47,4.3,7.42,4.37,12.84-0.03
	c81.57-66.28,158.79-137.18,228.05-216.4c27.88-31.89,51.23-66.79,66.99-106.39c13.62-34.23,18.84-69.24,10.06-105.61
	c-15.94-66.1-69.14-117.3-135.22-127.06c-71.94-10.63-128.8,15.38-170.08,75.28C359.18,127.01,357.31,130.09,355.01,133.66z"/>
</svg>
